<?xml version="1.0" standalone="no"?><!DOCTYPE svg PUBLIC "-//W3C//DTD SVG 1.1//EN" "http://www.w3.org/Graphics/SVG/1.1/DTD/svg11.dtd"><svg t="1582022028672" class="icon" viewBox="0 0 1280 1024" version="1.1" xmlns="http://www.w3.org/2000/svg" p-id="4032" xmlns:xlink="http://www.w3.org/1999/xlink" width="250" height="200"><defs><style type="text/css"></style></defs><path d="M1260.064 609.472c-5.44-21.664-27.072-40.64-51.456-46.016-24.352-2.72-46.016 2.688-64.96 10.816-13.568 5.44-27.104 13.536-40.64 18.944 5.44-27.072-10.816-46.016-35.2-51.424-21.664-5.44-46.016-2.72-67.68 5.408-16.256 5.44-29.76 13.536-43.328 27.072l-5.44-8.128c-21.632-27.072-51.424-35.2-83.904-24.352-18.976 5.408-35.2 13.536-51.456 24.352-32.48 16.256-62.272 35.2-92.064 54.176l-13.536 8.096v2.72c8.128 0 16.256 2.72 24.384 2.72 24.352 0 48.736 0 70.4 2.688 21.632 0 43.296 2.72 64.96 10.848 21.664 5.408 37.92 16.224 48.736 37.888 8.128 13.536 8.128 27.104 10.848 40.64 2.72 29.76-8.128 54.144-32.512 70.4-29.76 21.664-64.96 29.76-100.16 29.76h-200.384c-18.944 0-37.888-2.688-54.144-10.816-40.64-13.536-73.12-37.92-105.6-67.68l-8.128-8.128c16.256 5.408 29.76 10.816 46.016 13.536 48.768 16.224 97.504 24.352 148.928 24.352h162.464c13.536 0 24.384 0 37.92-2.688a133.312 133.312 0 0 0 46.016-16.256c13.536-10.816 16.256-24.384 13.536-37.92-2.688-13.536-10.816-21.664-24.352-27.072-5.44-2.688-13.536-5.408-18.944-5.408-32.512-2.72-64.992-2.72-100.192-5.44h-27.072c-32.512-2.688-62.272-10.816-92.064-21.632-27.072-10.848-51.456-21.664-75.84-37.92-43.296-32.48-86.624-62.272-132.672-89.344-32.48-18.944-64.96-27.072-102.88-24.384-27.072 2.72-54.144 8.128-78.528 18.976-62.272 27.072-124.544 54.144-189.536 81.216-8.128 2.72-16.256 8.128-24.384 10.848l138.112 300.544c2.72-2.72 5.44-2.72 8.128-5.44 24.352-16.224 48.736-32.48 73.088-46.016 18.976-10.816 40.64-18.944 64.992-10.816 13.536 5.408 27.072 10.816 37.92 16.256 64.96 32.48 129.952 67.68 197.664 100.16 24.352 10.848 46.016 21.664 70.4 32.512 24.352 8.128 48.736 13.536 73.088 8.128 24.384-2.72 48.736-13.568 70.4-27.104 154.336-92.064 303.264-192.224 452.192-292.416a215.68 215.68 0 0 0 46.048-40.64c8.096-16.224 16.224-27.072 10.816-46.016z m-595.68-89.344c86.624 0 157.024-70.4 157.024-157.056s-70.4-157.056-157.024-159.744c-86.656 0-157.056 70.4-159.776 157.056 2.72 86.624 73.12 159.744 159.776 159.744zM761.856 154.56c40.608 16.224 75.808 46.016 100.16 81.216 2.72 2.72 5.44 5.44 10.848 5.44 59.552-2.72 108.32-54.176 108.32-116.448 0-5.44 0-10.816-2.72-16.256-8.128-62.272-67.68-105.6-132.672-94.752-62.272 10.816-102.912 67.68-92.064 129.952 2.688 5.44 2.688 8.128 8.128 10.848z" fill="#61C15F" p-id="4033"></path></svg>