<?xml version="1.0" standalone="no"?><!DOCTYPE svg PUBLIC "-//W3C//DTD SVG 1.1//EN" "http://www.w3.org/Graphics/SVG/1.1/DTD/svg11.dtd"><svg t="1582022045636" class="icon" viewBox="0 0 1024 1024" version="1.1" xmlns="http://www.w3.org/2000/svg" p-id="4578" xmlns:xlink="http://www.w3.org/1999/xlink" width="200" height="200"><defs><style type="text/css"></style></defs><path d="M512 1024c368.1024 0 512-143.8976 512-512S880.1024 0 512 0 0 143.8976 0 512s143.8976 512 512 512z" fill="#3AD7B4" p-id="4579"></path><path d="M358.4 435.2a153.6 153.6 0 1 0 307.2 0 153.6 153.6 0 0 0-307.2 0z" fill="#3AD7B4" p-id="4580"></path><path d="M696.192 377.7792c36.5312 0 66.9696 30.4384 66.9696 66.9696v325.7344c0 6.0928-3.072 9.1392-6.0928 12.1856-3.0464 3.0464-9.1392 0-12.1856-3.0464l-51.7376-33.4848c-9.1392-6.0928-27.392-12.1856-39.5776-12.1856h-179.6096c-27.392 0-51.7632-18.2528-60.9024-42.624l-27.392 15.232c15.2064 36.5312 51.7376 63.9232 91.3152 63.9232h176.5888c6.0928 0 18.2528 3.072 24.3456 6.0928l51.7632 33.4848c9.1136 6.0928 15.2064 9.1392 24.3456 9.1392 6.0928 0 12.1856-3.0464 18.2784-6.0928 12.16-6.0928 21.2992-21.2992 21.2992-39.5776V444.7488c0-51.5584-37.7344-92.3392-87.808-96.9728-2.1248-0.2048-5.3248 9.8048-9.6 30.0032z m-26.1632 200.9088v-225.28c0-54.784-42.624-97.408-97.408-97.408h-244.8128C273.024 256 230.4 298.624 230.4 353.408V679.168c0 18.2528 9.1392 30.4384 21.2992 39.5776 6.0928 3.0464 12.1856 6.0928 18.2784 6.0928 9.1392 0 18.2528-3.072 24.3456-9.1392l51.7632-33.4848c6.0928-3.072 18.2528-6.0928 24.3456-6.0928h202.1888c54.784 0 97.408-42.624 97.408-97.4336zM261.6064 679.168c0 3.4048 0 3.4048 0 0 0 3.4048 0 3.4048 0 0z m6.0928 12.16c0 5.76 0 0 0 0s0 5.76 0 0z m310.3744-222.208c0 18.2528-12.1856 30.4384-30.464 30.4384-18.2528 0-30.4128-12.1856-30.4128-30.464 0-18.2528 12.16-30.4384 30.4384-30.4384 18.2528 0 30.464 12.1856 30.464 30.464h-0.0256z m-250.2656-181.9392h219.2128-225.28 6.0672z m158.9504 181.888c0 18.2784-12.1856 30.464-30.464 30.464-18.2528 0-30.4384-12.1856-30.4384-30.464 0-18.2528 12.1856-30.4384 30.464-30.4384 18.2528 0 30.4384 12.1856 30.4384 30.464v-0.0256z m-91.3408 0c0 18.2784-12.1856 30.464-30.464 30.464-18.2528 0-30.4128-12.1856-30.4128-30.464 0-18.2528 12.16-30.4384 30.4384-30.4384 18.2528 0 30.4384 12.1856 30.4384 30.464v-0.0256z m-64.5632 188.7488l-51.7376 33.4848c-3.072 3.072-6.0928 3.072-6.0928 3.072 3.0464 0 6.0928 0 6.0928-3.072l51.7376-33.4848c9.1392-6.0928 30.464-12.16 42.624-12.16h176.5632c36.5568 0 66.9952-30.464 66.9952-66.9952V341.248v237.44c0 36.5312-30.464 66.9952-66.9952 66.9952H373.504c-15.2064 0-33.4848 6.0672-42.624 12.16l-0.0256-0.0256z" fill="#FFFFFF" p-id="4581"></path><path d="M672 362.24a25.6 25.6 0 1 0 51.2 0 25.6 25.6 0 0 0-51.2 0zM375.04 700.16a25.6 25.6 0 1 0 51.2 0 25.6 25.6 0 0 0-51.2 0z" fill="#FFFFFF" p-id="4582"></path></svg>