<?xml version="1.0" standalone="no"?><!DOCTYPE svg PUBLIC "-//W3C//DTD SVG 1.1//EN" "http://www.w3.org/Graphics/SVG/1.1/DTD/svg11.dtd"><svg t="1582022056273" class="icon" viewBox="0 0 1024 1024" version="1.1" xmlns="http://www.w3.org/2000/svg" p-id="4989" xmlns:xlink="http://www.w3.org/1999/xlink" width="200" height="200"><defs><style type="text/css"></style></defs><path d="M550.9632 703.488h-119.7824v-68.2752h123.4176v-178.3296h-109.7728V388.608h109.7728V251.392h68.3008v137.1648h109.7984v68.3008h-109.7984v153.5744a252.672 252.672 0 0 1 159.1808-56.2176c31.1296 0 61.056 5.632 88.6528 15.9488l51.8144-398.208L485.9648 18.432 49.4848 171.9808l70.7328 544.512c20.1216 145.8688 238.3616 228.6848 365.7472 287.5392 28.0576-12.9792 60.5952-27.1616 94.3872-42.9056a252.4416 252.4416 0 0 1-51.8144-153.4464 255.36 255.36 0 0 1 22.4256-104.192z m-173.7984 0.256h-68.3008v-175.36L246.784 598.016l-43.4432-46.08 157.8496-177.2032H226.56v-68.3264h75.1616l-21.0176-57.1904h68.1984l20.992 57.088h75.904v68.3008l-67.328 75.5712 97.28 87.2448-42.0352 45.312-56.5504-50.688v171.6736z m404.9152-93.184a197.0688 197.0688 0 0 0-197.12 197.12c0 108.9024 88.2176 197.12 197.12 197.12s197.12-88.2176 197.12-197.12-88.2176-197.12-197.12-197.12z m-36.864 308.1216l-0.3072 0.2048-89.7792-89.7536 30.0288-30.0288 59.7504 59.7248 134.0928-134.0928 30.0288 30.0288-163.7888 163.9168z" fill="#4659FF" p-id="4990"></path></svg>