<?xml version="1.0" standalone="no"?><!DOCTYPE svg PUBLIC "-//W3C//DTD SVG 1.1//EN" "http://www.w3.org/Graphics/SVG/1.1/DTD/svg11.dtd"><svg t="1582022006165" class="icon" viewBox="0 0 1109 1024" version="1.1" xmlns="http://www.w3.org/2000/svg" p-id="3895" xmlns:xlink="http://www.w3.org/1999/xlink" width="216.6015625" height="200"><defs><style type="text/css"></style></defs><path d="M85.140936 82.88507v638.076321c0 12.287655 14.790696 33.449728 26.737028 38.910908l441.018738 181.527352c-0.682648-0.682648 2.133273 0.682648 2.133273 0.682647s2.815921-0.682648 2.10483-0.682647l441.047182-181.527352c11.23524-4.095885 26.737028-26.623253 26.737027-38.910908V82.88507L579.605286 212.559654l-23.892663 6.826475-23.921107-6.826475L85.140936 82.88507zM81.613924 3.043755L554.318884 133.400986 1027.023844 3.043755C1071.339045-9.243901 1109.311313 16.696705 1109.311313 62.405645V719.624539c0 44.372088-35.184791 96.224856-78.077809 113.973692l-441.729829 182.892646a88.545071 88.545071 0 0 1-35.184791 7.509123c-10.552593 0-23.210015-2.73059-35.184791-7.509123L78.115355 834.935082C34.482802 817.186247 0.009102 765.333479 0.009102 720.961391V62.405645C-0.673545 17.379352 36.616075-9.243901 81.642368 3.043755z" fill="#1794FF" p-id="3896"></path><path d="M315.762021 598.739042l-117.187823 63.144895 23.124685-134.054906-94.916449-95.627539 132.035407-19.65456 57.769046-122.961883 58.593912 122.961883 132.035407 19.626116-95.741314 94.802674 23.124684 134.083349-118.837555-62.348473z m389.450407-155.30231l248.967238-83.055447a41.641498 41.641498 0 0 0 26.111267-52.819852c-7.56601-21.275848-30.946687-33.62039-52.933626-26.05438l-248.967237 82.998561a41.641498 41.641498 0 0 0-26.139711 52.848295 41.527724 41.527724 0 0 0 52.962069 26.05438z m0 165.342917l248.967238-83.027004a41.641498 41.641498 0 0 0 26.111267-52.819851c-7.56601-21.275848-30.946687-33.62039-52.933626-26.082824l-248.967237 83.027004a41.641498 41.641498 0 0 0-26.139711 52.819851c7.56601 21.958495 30.946687 32.937743 52.962069 26.082824z m0 164.660269l248.967238-83.027003a41.641498 41.641498 0 0 0 26.111267-52.819852c-7.56601-21.275848-30.946687-33.62039-52.933626-26.082824l-248.967237 83.027004a41.641498 41.641498 0 0 0-26.139711 52.819852 41.527724 41.527724 0 0 0 52.962069 26.082823z" fill="#1794FF" p-id="3897"></path></svg>