<?xml version="1.0" standalone="no"?><!DOCTYPE svg PUBLIC "-//W3C//DTD SVG 1.1//EN" "http://www.w3.org/Graphics/SVG/1.1/DTD/svg11.dtd"><svg t="1582022059667" class="icon" viewBox="0 0 1024 1024" version="1.1" xmlns="http://www.w3.org/2000/svg" p-id="5125" xmlns:xlink="http://www.w3.org/1999/xlink" width="200" height="200"><defs><style type="text/css"></style></defs><path d="M27.022222 996.977778h438.044445v-438.044445H27.022222v438.044445z m100.835556-288.796445L172.088889 663.893333l71.879111 71.879111 71.879111-71.879111 44.231111 44.259556-71.879111 71.850667 71.879111 71.879111-44.231111 44.231111-71.879111-71.850667-71.879111 71.850667-44.231111-44.231111 71.850666-71.879111-71.850666-71.850667zM558.933333 27.022222v438.044445h438.044445V27.022222h-438.044445z m344.177778 250.311111h-250.311111v-62.577777h250.311111v62.577777z m-876.088889 187.733334h438.044445V27.022222H27.022222v438.044445z m93.866667-250.311111h93.866667v-93.866667h62.577777v93.866667h93.866667v62.577777h-93.866667v93.866667h-62.577777v-93.866667h-93.866667v-62.577777z m438.044444 782.222222h438.044445v-438.044445h-438.044445v438.044445z m219.022223-78.222222a46.933333 46.933333 0 1 1 0-93.866667 46.933333 46.933333 0 0 1 0 93.866667z m0-281.6a46.933333 46.933333 0 1 1 0 93.866666 46.933333 46.933333 0 0 1 0-93.866666z m-125.155556 109.511111h250.311111v62.577777h-250.311111v-62.577777z" fill="#3D84FF" p-id="5126"></path></svg>