<?xml version="1.0" standalone="no"?><!DOCTYPE svg PUBLIC "-//W3C//DTD SVG 1.1//EN" "http://www.w3.org/Graphics/SVG/1.1/DTD/svg11.dtd"><svg t="1582022033436" class="icon" viewBox="0 0 1024 1024" version="1.1" xmlns="http://www.w3.org/2000/svg" p-id="4168" xmlns:xlink="http://www.w3.org/1999/xlink" width="200" height="200"><defs><style type="text/css"></style></defs><path d="M498.746514 382.624914a126.595657 126.595657 0 0 0-90.638628 37.595429 127.268571 127.268571 0 0 0-37.595429 90.638628c0 34.172343 13.370514 66.413714 37.595429 90.638629a127.268571 127.268571 0 0 0 90.638628 37.595429c34.172343 0 66.413714-13.370514 90.638629-37.595429a127.268571 127.268571 0 0 0 37.595428-90.638629c0-34.172343-13.370514-66.413714-37.595428-90.638628a127.268571 127.268571 0 0 0-90.638629-37.595429z" fill="#A561FF" p-id="4169"></path><path d="M906.8544 222.295771L544.475429 13.136457a90.814171 90.814171 0 0 0-45.699658-12.229486c-15.798857 0-31.5392 4.096-45.728914 12.229486L90.638629 222.4128a91.3408 91.3408 0 0 0-45.728915 79.199086v418.377143c0 32.709486 17.378743 62.8736 45.728915 79.199085l362.378971 209.276343a91.984457 91.984457 0 0 0 45.728914 12.229486c15.7696 0 31.5392-4.096 45.699657-12.229486l362.408229-209.276343a91.3408 91.3408 0 0 0 45.728914-79.199085V301.494857a91.3408 91.3408 0 0 0-45.728914-79.199086z m-408.137143 508.196572a219.574857 219.574857 0 0 1-219.633371-219.633372 219.662629 219.662629 0 1 1 439.325257 0 219.574857 219.574857 0 0 1-219.662629 219.662629z" fill="#A561FF" p-id="4170"></path></svg>