<?xml version="1.0" standalone="no"?><!DOCTYPE svg PUBLIC "-//W3C//DTD SVG 1.1//EN" "http://www.w3.org/Graphics/SVG/1.1/DTD/svg11.dtd"><svg t="1582022062582" class="icon" viewBox="0 0 1280 1024" version="1.1" xmlns="http://www.w3.org/2000/svg" p-id="5261" xmlns:xlink="http://www.w3.org/1999/xlink" width="250" height="200"><defs><style type="text/css"></style></defs><path d="M697.216 694.4H24v123.2c0 38.912 31.488 70.4 70.4 70.4h631.264a318.144 318.144 0 0 1-28.48-193.6z m312.384-264c65.184 0 125.664 19.648 176 53.344V78.4c0-38.912-31.488-70.4-70.4-70.4H94.4c-38.912 0-70.4 31.488-70.4 70.4V553.6h734.816a316.48 316.48 0 0 1 250.784-123.2z m-713.6 0h-16a115.2 115.2 0 0 1-115.2-115.2c0-31.232 10.304-62.464 30.816-93.664C216.096 190.336 246.88 154.304 288 113.6c41.12 40.832 71.904 76.864 92.416 107.936 20.48 31.072 30.784 62.4 30.784 93.632a115.2 115.2 0 0 1-115.2 115.232z m713.6 70.4a246.336 246.336 0 0 0-246.4 246.4c0 136.128 110.272 246.4 246.4 246.4s246.4-110.272 246.4-246.4-110.272-246.4-246.4-246.4z m-35.2 105.6v52.8h158.4v52.8h-264l105.6-105.6z m70.4 281.6V835.2H886.4v-52.8h264l-105.6 105.6z" fill="#E83333" p-id="5262"></path></svg>