<?xml version="1.0" standalone="no"?><!DOCTYPE svg PUBLIC "-//W3C//DTD SVG 1.1//EN" "http://www.w3.org/Graphics/SVG/1.1/DTD/svg11.dtd"><svg t="1582022049830" class="icon" viewBox="0 0 1126 1024" version="1.1" xmlns="http://www.w3.org/2000/svg" p-id="4717" xmlns:xlink="http://www.w3.org/1999/xlink" width="219.921875" height="200"><defs><style type="text/css"></style></defs><path d="M1125.8368 584.2432c0.128 2.048 0.128 4.0704-0.128 6.1184-5.4016 115.2-99.328 207.0016-214.3488 207.0016-115.0464 0-208.8448-91.8016-214.2464-207.0016a31.0272 31.0272 0 0 1-0.128-5.9904c0-1.536-0.128-2.9184-0.128-4.4544h0.8704l0.384-1.536 147.6096-320.6144h-243.712v671.1296h184.832c28.416 0 51.328 21.1712 51.328 47.4368s-22.912 47.4624-51.328 47.4624h-461.312c-28.3904 0-51.3024-21.1968-51.3024-47.4624 0-26.2656 22.912-47.4368 51.328-47.4368h198.3744V257.7664h-243.7888l147.712 320.4864 0.3584 1.536h0.8704c0 1.536-0.128 2.944-0.128 4.4544 0.128 2.048 0.128 4.0704-0.128 6.1184-5.376 115.2-99.328 207.0016-214.3488 207.0016C99.4304 797.3632 5.632 705.536 0.256 590.336a31.0272 31.0272 0 0 1-0.128-5.9904c0-1.536-0.128-2.9184-0.128-4.4544h0.8704l0.384-1.536L184.3456 180.6848c1.8432-6.1184 5.6832-10.9824 10.4448-14.4896v-1.792h2.816c5.0944-2.8928 10.9056-4.4032 16.8704-3.712a27.648 27.648 0 0 1 16.7424 3.6864h292.7104V50.8672c0-28.032 17.408-50.688 39.04-50.688 21.632 0 39.0656 22.656 39.0656 50.688v113.5104H894.464c5.0688-2.8672 10.88-4.352 16.8704-3.6864 5.888-0.6912 11.6992 0.8448 16.7424 3.6864h3.072V166.4c4.6592 3.5072 8.4736 8.2944 10.2912 14.336l183.2448 397.5424 0.384 1.536h0.8704c0 1.536-0.128 2.944-0.128 4.4544zM212.864 721.28c51.968 0 96.5376-33.2032 113.9712-79.7184h-228.096c17.664 46.5152 62.1056 79.7184 114.1248 79.7184z m1.6128-442.8288L94.0288 571.392h240.896L214.5024 278.4512z m695.2448 442.8288c51.9936 0 96.5376-33.2032 113.9712-79.7184h-228.096c17.664 46.5152 62.1056 79.7184 114.1248 79.7184z m1.6384-442.8288L790.8864 571.392h240.9216L911.36 278.4512z" fill="#1296DB" p-id="4718"></path></svg>