<?xml version="1.0" standalone="no"?><!DOCTYPE svg PUBLIC "-//W3C//DTD SVG 1.1//EN" "http://www.w3.org/Graphics/SVG/1.1/DTD/svg11.dtd"><svg t="1582022037116" class="icon" viewBox="0 0 1024 1024" version="1.1" xmlns="http://www.w3.org/2000/svg" p-id="4305" xmlns:xlink="http://www.w3.org/1999/xlink" width="200" height="200"><defs><style type="text/css"></style></defs><path d="M287.992242 219.260121c0 78.103273 40.029091 150.248727 105.037576 189.284849a203.031273 203.031273 0 0 0 210.075152 0c64.977455-39.036121 105.006545-111.181576 105.006545-189.284849 0-78.072242-40.029091-150.186667-105.006545-189.253818a203.031273 203.031273 0 0 0-210.075152 0c-64.977455 39.036121-105.037576 111.181576-105.037576 189.284849zM498.191515 477.711515C249.080242 477.711515 0 666.189576 0 1018.662788h996.227879c0-352.504242-248.956121-540.951273-498.036364-540.951273z m131.878788 303.259152l-103.020606 107.147636a28.547879 28.547879 0 0 1-4.251152 5.213091c-6.919758 7.13697-16.135758 10.674424-25.227636 10.550303-9.091879 0.124121-18.307879-3.413333-25.196606-10.550303a60.974545 60.974545 0 0 1-4.251151-5.213091l-103.020607-107.147636a37.546667 37.546667 0 0 1 0-51.386182 34.071273 34.071273 0 0 1 49.431273 0l82.91297 86.295273 82.91297-86.295273a34.071273 34.071273 0 0 1 49.462303 0c13.808485 14.056727 13.808485 37.205333 0.248242 51.386182z" fill="#55E64C" p-id="4306"></path></svg>